<svg width="100%" height="100%" viewBox="0 0 65 66" version="1.1" xmlns="http://www.w3.org/2000/svg" xml:space="preserve" fill-rule="evenodd" clip-rule="evenodd" stroke-linejoin="round" stroke-miterlimit="1.414"><path d="M12.899 10.384C12.899.453.424.639.424.639V9.71c0 7.275 12.475 9.034 12.475 9.034v-8.36zm39.472 38.44c0 3.675-3.927 5.52-11.795 5.52H26.741c-3.004 0-5.752-.289-8.226-.857-3.713-.878-5.573-2.266-5.573-4.17V30.042h27.719c7.819 0 11.71 1.714 11.71 5.158v13.624zM40.526 19.312H12.942L.481 19.291v30.982c0 5.066 3.048 8.966 9.149 11.678 4.728 2.083 10.051 3.117 15.974 3.117h14.922c16.209 0 24.329-5.003 24.329-15.023V34.113c0-9.869-8.12-14.801-24.329-14.801" id="Logo" fill="#fff"/></svg>