<?xml version="1.0" encoding="UTF-8" standalone="no"?><!DOCTYPE svg PUBLIC "-//W3C//DTD SVG 1.1//EN" "http://www.w3.org/Graphics/SVG/1.1/DTD/svg11.dtd"><svg width="100%" height="100%" viewBox="0 0 65 66" version="1.1" xmlns="http://www.w3.org/2000/svg" xmlns:xlink="http://www.w3.org/1999/xlink" xml:space="preserve" style="fill-rule:evenodd;clip-rule:evenodd;stroke-linejoin:round;stroke-miterlimit:1.41421;"><g id="Logo"><path d="M12.899,10.384c0,-9.931 -12.475,-9.745 -12.475,-9.745l0,9.071c0,7.275 12.475,9.034 12.475,9.034l0,-8.36Z" fill="#fff"/><path d="M52.371,48.824c0,3.675 -3.927,5.52 -11.795,5.52l-13.835,0c-3.004,0 -5.752,-0.289 -8.226,-0.857c-3.713,-0.878 -5.573,-2.266 -5.573,-4.17l0,-19.275l27.719,0c7.819,0 11.71,1.714 11.71,5.158l0,13.624Zm-11.845,-29.512l-27.584,0l-12.461,-0.021l0,30.982c0,5.066 3.048,8.966 9.149,11.678c4.728,2.083 10.051,3.117 15.974,3.117l14.922,0c16.209,0 24.329,-5.003 24.329,-15.023l0,-15.932c0,-9.869 -8.12,-14.801 -24.329,-14.801" fill="#fff"/></g></svg>